# xmcd CD database file
#
# Track frame offsets:
#	150
#	11727
#	26887
#	39335
#	49612
#	65622
#	76250
#	92960
#	105040
#	118137
#	136000
#	149865
#	177337
#	192217
#
# Disc length: 2791 seconds
#
# Revision: 12
# Processed by: cddbd v1.5.2PL0 Copyright (c) Steve Scherf et al.
# Submitted via: CDex 1.72
#
DISCID=bd0ae50e
DTITLE=Loveless, Patty (USA-01-Mountain Soul-cty) - Mountain Soul
DYEAR=2001
DGENRE=Country
TTITLE0=The Boys Are Back In Town
TTITLE1=The Richest Fool Alive
TTITLE2=Daniel Prayed
TTITLE3=Someone I Used To Know (Duet With Jon Randall)
TTITLE4=Out Of Control Raging Fire (Duet With Travis Tritt)
TTITLE5=Rise Up Lazarus
TTITLE6=Cheap Whiskey
TTITLE7=Pretty Little Miss
TTITLE8=I Know You're Married (But I Love You Still) (Duet With Travis Tritt)
TTITLE9=Sorrowful Angels
TTITLE10=Soul Of Constant Sorrow
TTITLE11=You'll Never Leave Harlan Alive
TTITLE12=Two Coats
TTITLE13=Sounds Of Loneliness
EXTD=YEAR: 2001
EXTT0=
EXTT1=
EXTT2=
EXTT3=
EXTT4=
EXTT5=
EXTT6=
EXTT7=
EXTT8=
EXTT9=
EXTT10=
EXTT11=
EXTT12=
EXTT13=
PLAYORDER=
